<?xml version="1.0" encoding="UTF-8"?>
<svg width="1200" height="630" viewBox="0 0 1200 630" fill="none" xmlns="http://www.w3.org/2000/svg">
  <!-- Background -->
  <rect width="1200" height="630" fill="#0F172A"/>
  
  <!-- Grid Pattern -->
  <path d="M0 0h1200v1H0zM0 157h1200v1H0zM0 314h1200v1H0zM0 471h1200v1H0zM0 629h1200v1H0z" fill="#1E293B" fill-opacity="0.1"/>
  <path d="M0 0v630h1V0zM157 0v630h1V0zM314 0v630h1V0zM471 0v630h1V0zM629 0v630h1V0z" fill="#1E293B" fill-opacity="0.1"/>
  
  <!-- Monitoring Graph -->
  <path d="M200 400 L300 300 L400 350 L500 250 L600 300 L700 200 L800 250" 
        stroke="#3B82F6" 
        stroke-width="4" 
        fill="none" 
        stroke-linecap="round"/>
  
  <!-- Data Points -->
  <circle cx="200" cy="400" r="4" fill="#3B82F6"/>
  <circle cx="300" cy="300" r="4" fill="#3B82F6"/>
  <circle cx="400" cy="350" r="4" fill="#3B82F6"/>
  <circle cx="500" cy="250" r="4" fill="#3B82F6"/>
  <circle cx="600" cy="300" r="4" fill="#3B82F6"/>
  <circle cx="700" cy="200" r="4" fill="#3B82F6"/>
  <circle cx="800" cy="250" r="4" fill="#3B82F6"/>
  
  <!-- Logo Text -->
  <text x="400" y="150" 
        font-family="system-ui, -apple-system, sans-serif" 
        font-size="48" 
        font-weight="bold" 
        fill="#FFFFFF" 
        text-anchor="middle">
    LightWatch
  </text>
  
  <!-- Tagline -->
  <text x="400" y="200" 
        font-family="system-ui, -apple-system, sans-serif" 
        font-size="24" 
        fill="#94A3B8" 
        text-anchor="middle">
    Open Source Infrastructure Monitoring
  </text>
  
  <!-- Decorative Elements -->
  <circle cx="100" cy="100" r="40" fill="#3B82F6" fill-opacity="0.1"/>
  <circle cx="1100" cy="530" r="30" fill="#3B82F6" fill-opacity="0.1"/>
  
  <!-- Server Icons -->
  <rect x="900" y="150" width="60" height="60" rx="8" fill="#3B82F6" fill-opacity="0.2"/>
  <rect x="900" y="250" width="60" height="60" rx="8" fill="#3B82F6" fill-opacity="0.2"/>
  <rect x="900" y="350" width="60" height="60" rx="8" fill="#3B82F6" fill-opacity="0.2"/>
</svg> 